<svg width="800" height="800" viewBox="0 0 64 64" xml:space="preserve" xmlns="http://www.w3.org/2000/svg"><g/><g/><g/><g/><g/><g/><g/><g/><g/><g/><path d="M60.97 8.34c.55 0 1-.45 1-1V3.06c0-.55-.45-1-1-1h-8.22c-.55 0-1 .45-1 1v4.28c0 .55.45 1 1 1h1.3v13h-.68c-1.39-5.19-6.12-9.02-11.74-9.02H14.19c-6.7 0-12.16 5.45-12.16 12.16s5.45 12.17 12.16 12.17c.46 0 .92-.03 1.37-.09l.25-.03c.43-.06.86-.14 1.28-.24.09-.02.18-.05.26-.07.43-.11.85-.24 1.26-.4.02-.01.05-.02.07-.03.4-.16.79-.35 1.17-.55.05-.03.11-.05.16-.07.06.12.13.22.19.33.13.24.26.49.42.72a8.81 8.81 0 0 0 7.28 3.84 8.84 8.84 0 0 0 7.9-4.89c.05.03.1.05.15.07.39.21.79.4 1.19.56.02.01.04.01.05.02.41.16.83.29 1.26.41.09.02.17.05.26.07.42.1.85.18 1.28.24l.26.03c.45.05.91.09 1.37.09 5.62 0 10.35-3.84 11.74-9.02h.68v24.24a4.28 4.28 0 0 1-4.27 4.27c-2.36 0-4.28-1.92-4.28-4.27v-5.19h1.37c.55 0 1-.45 1-1v-4.28c0-.55-.45-1-1-1h-8.22c-.55 0-1 .45-1 1v4.28c0 .55.45 1 1 1h1.24v5.39c0 5.45 4.44 9.88 9.89 9.88s9.89-4.43 9.89-9.88V27.49a3.1 3.1 0 0 0 2.3-3.01c0-1.44-.98-2.64-2.3-3.01V8.34zm-7.22-4.28h6.22v2.28h-6.22zM27.91 38.05c-2.25 0-4.35-1.11-5.63-2.97-.2-.3-.37-.61-.53-.94-.01-.03-.03-.07-.04-.1.09-.07.17-.15.26-.23.17-.14.33-.29.49-.43q.285-.27.54-.54c.15-.16.29-.32.43-.48.17-.2.32-.4.48-.6.13-.17.25-.34.37-.52.14-.22.28-.44.41-.66.1-.18.21-.36.3-.54.12-.24.23-.48.34-.73.08-.18.16-.36.23-.55.1-.26.18-.54.26-.81.05-.18.12-.35.16-.53.08-.31.13-.62.18-.94.03-.15.06-.3.08-.45.06-.47.1-.95.1-1.43 1.01-.24 2.11-.23 3.12 0 0 .48.04.96.1 1.43.02.15.06.3.08.45.05.32.11.63.18.94.04.18.1.34.15.52.08.28.16.55.27.83.07.18.15.35.23.53.11.25.22.51.34.75.09.18.19.35.29.52q.195.345.42.69c.11.17.23.33.35.49.16.21.32.42.49.63.13.16.27.31.42.46.18.19.37.38.56.56.15.14.31.28.47.42.09.08.17.16.27.24-.01.03-.02.06-.04.1-.15.32-.32.63-.53.93 0 0 0 .01-.01.01a6.74 6.74 0 0 1-5.59 2.95m13.72-3.41c-2.06 0-4.04-.61-5.74-1.77-2.77-1.9-4.42-5.04-4.42-8.39 0-.19.01-.38.02-.58.02-.44-.25-.84-.67-.99-.93-.33-1.91-.49-2.92-.49-1 0-1.98.17-2.91.49-.42.15-.69.55-.67.99.01.19.02.38.02.58 0 .42-.03.84-.08 1.25-.35 2.87-1.93 5.49-4.35 7.15-.36.25-.74.46-1.13.66-1.43.72-2.99 1.11-4.61 1.11-5.6 0-10.16-4.56-10.16-10.17 0-5.6 4.56-10.16 10.16-10.16h27.44c5.29 0 9.64 4.05 10.12 9.21v1.89c-.46 5.16-4.81 9.22-10.1 9.22m-1.98 7.75h6.22v2.28h-6.22zm18.02 9.67c0 4.34-3.54 7.88-7.89 7.88s-7.89-3.54-7.89-7.88v-5.39h1.61v5.19c0 3.46 2.82 6.27 6.28 6.27s6.27-2.81 6.27-6.27V27.62h1.62zm1.96-26.78c-.22.22-.5.34-.8.34h-5.08v-.2c.02-.31.05-.63.05-.94 0-.32-.02-.63-.05-.94v-.19h5.08c.63 0 1.14.51 1.14 1.14 0 .29-.12.57-.34.79m-1.96-3.94h-1.62v-13h1.62z"/></svg>